# xmcd CD database file
#
# Track frame offsets:
#	150
#	28016
#	55861
#	71188
#	108009
#	124572
#	145395
#	191562
#	218695
#	258476
#	274298
#	303568
#
# Disc length: 4554 seconds
#
# Revision: 2
# Processed by: cddbd v1.5.1PL2 Copyright (c) Steve Scherf et al.
# Submitted via: CDex 1.51
#
DISCID=b511c80c
DTITLE=Eric Clapton - Live in Hyde Park (London, 1996)
DYEAR=1996
DGENRE=Blues
TTITLE0=Layla
TTITLE1=Badge
TTITLE2=Hoochie Coochie Man
TTITLE3=I Shot The Sheriff
TTITLE4=It Hurts Me Too
TTITLE5=Wonderful Tonight
TTITLE6=Five Long Years
TTITLE7=Tearin's Us Apart
TTITLE8=Old Love
TTITLE9=I'm Tore Down
TTITLE10=Have You Ever Loved A Woman
TTITLE11=Every Day I Have The Blues
EXTD=YEAR: 1996
EXTT0=
EXTT1=
EXTT2=
EXTT3=
EXTT4=
EXTT5=
EXTT6=
EXTT7=
EXTT8=
EXTT9=
EXTT10=
EXTT11=
PLAYORDER=
